# xmcd
#
# Track frame offsets: 
#        150
#        13880
#        28989
#        36771
#        48739
#        61690
#        78543
#        90732
#        96463
#        110715
#        125446
#        136082
#        151927
#        164872
#        175380
#        186411
#        198189
#        208173
#        220107
#        234812
#        245944
#        257824
#
# Disc length: 3635 seconds
#
# Revision: 0
# Processed by: cddbd v1.5.2PL0 Copyright (c) Steve Scherf et al.
# Submitted via: ExactAudioCopy v1.0b3
#
DISCID=490e3116
DTITLE=Various Artist - Back in the saddle again CD2
DYEAR=2011
DGENRE=Country
TTITLE0=Patti Page - Tennessee waltz
TTITLE1=Jimmie Rodgers - In the jailhouse now
TTITLE2=Jerry Lee Lewis - Waiting for a train
TTITLE3=Don Gibson - I can't stop loving you
TTITLE4=Spade Cooley - Shame on you
TTITLE5=Townes Van Zandt - If I needed you
TTITLE6=Lynn Anderson - Stand by your man
TTITLE7=Loretta Lynn - The pill (live)
TTITLE8=Slim Whitman - Indian love call
TTITLE9=The Louvin Brothers - In the pines
TTITLE10=Jim Reeves - He'll have to go
TTITLE11=Charley Pride - Me and Bobby McGee (live)
TTITLE12=The Stanley Brothers - I'm a man of constant sorrow
TTITLE13=Wanda Jackson - Makin' believe
TTITLE14=Buck Owens - Above and beyond
TTITLE15=Tennessee Ernie Ford - 16 tons
TTITLE16=Sandy Posey - What a woman in love won't do
TTITLE17=Roy Acuff - Wabash cannonball
TTITLE18=Red Foley - Old shep
TTITLE19=Carl Smith - If teardrops were pennies
TTITLE20=Gene Autry - Back in the saddle again
TTITLE21=Ann Murray - Both sides now
EXTD=
EXTT0=
EXTT1=
EXTT2=
EXTT3=
EXTT4=
EXTT5=
EXTT6=
EXTT7=
EXTT8=
EXTT9=
EXTT10=
EXTT11=
EXTT12=
EXTT13=
EXTT14=
EXTT15=
EXTT16=
EXTT17=
EXTT18=
EXTT19=
EXTT20=
EXTT21=
PLAYORDER=
